<svg width="700pt" height="700pt" version="1.1" viewBox="0 0 700 700" xmlns="http://www.w3.org/2000/svg" xmlns:xlink="http://www.w3.org/1999/xlink">
  <path d="m350 30.625c-137.38 0-249.38 112-249.38 249.38s112 249.38 249.38 249.38 249.38-112 249.38-249.38-112-249.38-249.38-249.38zm141.31 385h-282.62c-2.625-13.125 0.875-21.875 0.875-21.875s0.4375-0.875 0.875-1.3125c3.0625-6.5625 32.812-36.75 93.188-47.688 6.125-1.3125 10.938-6.5625 10.938-13.125 0-3.5-1.3125-6.5625-3.9375-9.1875-5.6875-5.6875-10.938-11.812-15.312-16.625-12.25-14-34.125-39.812-31.938-74.375 2.1875-38.938 34.125-84.875 83.125-86.625 51.625-2.625 87.938 45.938 90.125 86.188 1.75 32.375-18.375 56.875-33.25 74.375-4.8125 5.6875-9.1875 11.375-14.438 16.188-2.1875 2.625-3.5 5.6875-3.5 8.75 0 6.5625 4.8125 11.812 11.375 12.688 36.75 4.375 82.25 16.625 93.188 49 3.0625 9.625 2.625 17.938 1.3125 23.625z" fill="#00ff99"/>
</svg>